<?xml version="1.0" standalone="no"?>
<!DOCTYPE svg PUBLIC "-//W3C//DTD SVG 20010904//EN"
 "http://www.w3.org/TR/2001/REC-SVG-20010904/DTD/svg10.dtd">
<svg version="1.0" xmlns="http://www.w3.org/2000/svg"
 width="900.000000pt" height="900.000000pt" viewBox="0 0 900.000000 900.000000"
 preserveAspectRatio="xMidYMid meet">

<g transform="translate(0.000000,900.000000) scale(0.100000,-0.100000)"
fill="#000000" stroke="none">
<path d="M4302 8323 c-416 -693 -821 -1365 -1152 -1913 -975 -1616 -1182
-1961 -1179 -1964 2 -2 570 254 1261 568 l1258 571 0 1518 c0 834 -2 1517 -4
1517 -3 0 -85 -134 -184 -297z"/>
<path d="M4522 7096 l3 -1518 1254 -569 c689 -314 1254 -569 1256 -567 2 2
-38 71 -88 153 -50 83 -381 632 -735 1220 -355 589 -743 1232 -862 1430 -119
198 -351 583 -515 855 -164 272 -302 499 -306 505 -5 5 -8 -653 -7 -1509z"/>
<path d="M3223 4988 c-689 -314 -1253 -574 -1253 -577 0 -3 245 -150 543 -326
298 -176 855 -505 1238 -731 382 -226 705 -417 717 -423 l22 -12 0 1321 c0
726 -3 1320 -7 1319 -5 0 -572 -258 -1260 -571z"/>
<path d="M4510 4240 l0 -1321 58 33 c197 112 2462 1454 2462 1459 0 5 -2422
1111 -2507 1146 -10 4 -13 -263 -13 -1317z"/>
<path d="M6635 3703 c-397 -236 -741 -439 -1607 -950 l-518 -305 0 -1029 c0
-566 2 -1029 4 -1029 3 0 91 123 197 273 106 149 248 349 314 442 67 94 260
366 430 605 170 239 440 620 600 845 160 226 441 622 625 880 183 259 337 476
343 483 5 6 6 12 1 11 -5 0 -180 -102 -389 -226z"/>
<path d="M1970 3906 c0 -4 371 -528 980 -1386 151 -212 310 -437 355 -500 45
-63 270 -380 500 -705 230 -324 475 -670 544 -767 70 -98 129 -178 134 -178 4
0 6 462 5 1027 l-3 1027 -1240 733 c-1412 835 -1275 755 -1275 749z"/>
</g>
</svg>
